# xmcd
#
# Track frame offsets: 
#        200
#        14525
#        29760
#        39915
#        52780
#        70187
#        83957
#        103760
#        116752
#        130655
#        141302
#        152985
#
# Disc length: 2278 seconds
#
# Revision: 2
# Processed by: cddbd v1.5.2PL0 Copyright (c) Steve Scherf et al.
# Submitted via: ExactAudioCopy v0.99pb3
#
DISCID=a308e40c
DTITLE=Bryan Duckworth - Duckworth's mood swing
DYEAR=1994
DGENRE=Folk
TTITLE0=Duckworth's mood swing
TTITLE1=Bonaparte's retreat
TTITLE2=La calle seis
TTITLE3=Age's waltz
TTITLE4=Curly headed baby
TTITLE5=Clamboree
TTITLE6=Catfish two-step
TTITLE7=Pretty coquette
TTITLE8=Blackberry blossom
TTITLE9=Blue skirt waltz
TTITLE10=Darktown strutter's ball
TTITLE11=Rancho grande - Jesse polka
EXTD=
EXTT0=
EXTT1=
EXTT2=
EXTT3=
EXTT4=
EXTT5=
EXTT6=
EXTT7=
EXTT8=
EXTT9=
EXTT10=
EXTT11=
PLAYORDER=
